<?xml version="1.0" standalone="no"?>
<!DOCTYPE svg PUBLIC "-//W3C//DTD SVG 20010904//EN"
 "http://www.w3.org/TR/2001/REC-SVG-20010904/DTD/svg10.dtd">
<svg version="1.0" xmlns="http://www.w3.org/2000/svg"
 width="500.000000pt" height="500.000000pt" viewBox="0 0 500.000000 500.000000"
 preserveAspectRatio="xMidYMid meet">
<metadata>
Created by potrace 1.14, written by Peter Selinger 2001-2017
</metadata>
<g transform="translate(0.000000,500.000000) scale(0.100000,-0.100000)"
fill="#000000" stroke="none">
<path d="M2260 4988 c-417 -43 -805 -182 -1146 -410 l-125 -83 62 -9 c56 -8
66 -7 117 18 43 22 57 25 63 14 18 -28 9 -46 -32 -62 -22 -9 -65 -32 -94 -51
-52 -33 -54 -33 -70 -15 -9 10 -14 24 -10 29 4 7 -4 11 -19 11 -13 0 -32 7
-41 16 -14 15 -19 13 -63 -22 -26 -21 -105 -97 -177 -168 -393 -396 -626 -875
-707 -1451 -16 -116 -16 -494 0 -610 68 -485 240 -890 540 -1270 73 -91 277
-296 371 -369 102 -81 270 -194 371 -249 113 -61 289 -139 300 -132 5 3 23 30
40 60 33 58 41 63 59 41 9 -11 5 -25 -19 -66 -17 -29 -28 -56 -23 -60 26 -24
326 -100 503 -127 162 -25 519 -24 685 1 155 23 393 83 520 131 233 87 502
239 705 399 95 75 299 279 372 371 289 366 473 789 534 1227 6 45 5 47 -22 50
-21 2 -29 8 -29 23 0 16 6 20 32 18 l31 -3 7 118 c27 422 -69 883 -263 1266
-30 60 -41 75 -46 60 -3 -10 -64 -251 -136 -534 -407 -1601 -501 -1964 -505
-1968 -6 -7 -42 7 -735 289 -599 244 -837 343 -845 351 -3 3 23 31 57 63 35
33 254 244 488 470 234 226 513 494 620 595 107 102 291 280 410 395 118 116
289 281 378 367 176 168 174 165 129 222 l-23 28 -137 -93 c-218 -149 -994
-688 -1452 -1008 -231 -162 -541 -377 -690 -479 -148 -101 -290 -201 -315
-221 -25 -20 -89 -67 -142 -104 l-96 -67 -669 120 c-367 66 -679 123 -693 126
-24 6 -23 7 15 24 61 27 1312 546 2120 880 1600 660 2036 844 2033 856 -2 7
-40 57 -86 112 -241 292 -578 541 -936 692 -97 42 -99 42 -133 26 -43 -21 -41
-21 -51 17 -8 31 -12 33 -121 64 -274 79 -630 111 -911 81z m886 -225 c-7 -7
-174 -42 -204 -43 -19 0 -23 4 -20 27 3 25 8 27 108 47 l105 21 9 -23 c4 -13
6 -26 2 -29z m-378 -68 c-6 -6 -219 -37 -223 -33 -2 2 -5 14 -7 28 -3 24 -1
25 107 40 l110 15 9 -23 c4 -13 6 -25 4 -27z m-388 -24 c0 -33 -7 -35 -147
-47 l-83 -7 0 27 c0 14 1 26 3 27 1 1 52 7 112 14 61 7 111 13 113 14 1 0 2
-12 2 -28z m-385 -32 c4 -12 3 -24 -2 -29 -4 -4 -56 -10 -114 -14 -104 -6
-107 -6 -112 16 -4 12 -4 25 -1 28 3 3 38 8 77 11 140 11 145 11 152 -12z
m-385 -44 c0 -14 -3 -25 -6 -25 -3 0 -51 -9 -107 -21 -104 -21 -121 -18 -114
21 2 16 123 47 190 49 33 1 37 -2 37 -24z m1678 -79 c15 -8 41 -28 57 -46 29
-31 29 -32 10 -46 -17 -13 -22 -11 -55 21 -28 27 -44 35 -72 35 -34 0 -48 12
-48 41 0 14 78 11 108 -5z m-192 -110 c3 -8 1 -31 -4 -52 -6 -22 -13 -60 -17
-86 -5 -42 -9 -48 -29 -48 -22 0 -23 3 -19 48 11 111 50 189 69 138z m-1586
-94 c42 -35 42 -35 22 -55 -20 -20 -20 -20 -64 15 -23 19 -64 47 -90 63 -53
30 -52 28 -37 56 10 19 12 19 69 -12 33 -17 78 -47 100 -67z m-586 -30 c15
-18 14 -21 -17 -63 -19 -24 -44 -64 -57 -89 -12 -25 -24 -46 -25 -48 -1 -1
-14 3 -28 9 l-26 12 21 41 c26 51 98 156 108 156 4 0 14 -8 24 -18z m2515 -45
c6 -35 11 -82 11 -105 0 -35 -3 -42 -20 -42 -11 0 -20 3 -20 8 -1 16 -21 146
-26 167 -5 22 1 27 37 34 4 0 12 -27 18 -62z m-729 -67 c0 -21 -4 -24 -54 -35
-16 -3 -42 -20 -59 -36 -23 -23 -35 -29 -49 -22 -17 8 -17 9 1 39 35 58 161
100 161 54z m208 -45 c34 -14 73 -25 86 -25 15 0 30 -8 35 -19 22 -41 -73 -35
-161 10 -41 21 -41 20 -32 43 8 20 -1 21 72 -9z m-1253 -50 c21 -63 32 -165
17 -165 -6 0 -17 -3 -25 -6 -12 -4 -17 7 -22 47 -4 29 -16 77 -26 108 -11 30
-18 55 -17 56 18 13 44 22 50 17 3 -4 14 -29 23 -57z m1777 -153 c-2 -19 -11
-64 -20 -100 -15 -57 -20 -66 -37 -64 -11 2 -21 5 -22 6 -2 1 7 46 19 100 20
86 25 96 43 94 16 -2 19 -9 17 -36z m-2660 -90 c5 -106 1 -121 -28 -122 -18 0
-25 27 -31 111 -7 101 -1 128 31 122 23 -5 24 -9 28 -111z m1866 47 c42 -45
60 -72 56 -83 -10 -25 -21 -20 -78 34 -65 62 -86 97 -66 110 20 13 18 14 88
-61z m1872 8 c0 -2 -134 -131 -297 -288 -164 -156 -433 -415 -598 -575 -252
-243 -672 -648 -1137 -1094 -96 -93 -102 -102 -256 -362 -86 -147 -201 -344
-256 -438 -54 -94 -100 -169 -103 -167 -2 3 -37 225 -77 493 -62 418 -71 491
-59 504 7 8 104 76 213 150 193 130 404 277 1605 1114 981 683 965 673 965
663z m-2850 -156 c0 -24 -43 -110 -80 -160 l-32 -44 -20 21 -21 20 41 61 c22
34 45 76 52 95 9 28 14 32 35 28 15 -2 25 -11 25 -21z m1257 -26 c62 -22 83
-35 83 -48 0 -10 -6 -20 -13 -23 -11 -4 -150 44 -179 62 -10 6 10 47 20 42 4
-2 44 -17 89 -33z m411 -75 c21 0 13 -30 -11 -41 -16 -7 -51 -8 -103 -2 -71 7
-79 10 -82 30 -3 22 -2 22 90 18 51 -3 99 -5 106 -5z m156 -15 c-55 -25 -66
-28 -101 -26 -16 1 -23 7 -23 20 0 24 16 29 105 29 l70 0 -51 -23z m-2590 -58
c20 -19 57 -44 84 -57 26 -13 48 -24 50 -25 1 -1 -2 -14 -8 -29 l-10 -26 -57
29 c-32 16 -77 46 -101 66 -41 36 -42 38 -26 56 23 25 25 24 68 -14z m2375
-33 c-28 -14 -32 -13 -24 8 4 10 14 14 27 10 20 -5 20 -5 -3 -18z m-1871 -59
c10 -21 9 -26 -9 -35 -26 -15 -145 -40 -186 -40 -30 0 -33 3 -33 29 0 28 2 28
63 34 34 3 80 12 102 20 22 8 43 15 46 16 3 0 11 -10 17 -24z m3407 -1254
c-11 -10 -135 -41 -166 -41 -12 0 -19 7 -19 20 0 20 30 32 124 49 43 8 80 -9
61 -28z m-268 -77 c2 -6 -28 -37 -67 -68 -57 -45 -74 -55 -86 -45 -20 17 -3
41 63 89 55 39 82 47 90 24z m-3683 -69 c16 -24 16 -25 -36 -60 -29 -19 -58
-35 -64 -35 -9 0 -34 40 -34 55 0 4 103 64 111 65 4 0 14 -11 23 -25z m697
-103 c-13 -2 -27 0 -32 5 -6 6 3 7 23 4 28 -4 29 -6 9 -9z m-948 -26 c18 -39
24 -33 -70 -66 l-51 -18 -12 29 c-7 16 -10 33 -6 37 7 6 104 49 117 51 3 1 13
-14 22 -33z m1004 18 c-3 -3 -12 -4 -19 -1 -8 3 -5 6 6 6 11 1 17 -2 13 -5z
m2719 -15 c3 -6 -6 -33 -21 -60 -21 -40 -24 -53 -15 -64 18 -22 6 -42 -28 -47
l-29 -4 20 80 c11 45 24 87 30 94 12 15 34 16 43 1z m-3993 -101 c4 -13 7 -27
9 -32 3 -7 -123 -61 -127 -54 -9 18 -25 61 -23 63 8 8 105 44 119 44 9 1 19
-9 22 -21z m4185 -68 c48 -22 63 -34 60 -47 -5 -22 -15 -21 -105 13 -55 20
-73 31 -73 45 0 28 44 24 118 -11z m-1991 -36 c221 -87 293 -117 293 -123 0
-5 -830 -603 -866 -624 -8 -4 -14 -4 -14 0 0 4 42 78 94 163 51 85 156 262
232 392 76 131 140 238 141 238 2 0 56 -21 120 -46z m1686 -156 c-5 -77 -8
-88 -24 -88 -23 0 -24 14 -4 94 30 117 35 116 28 -6z m490 50 c55 -74 73 -138
39 -138 -11 0 -27 19 -45 53 -15 28 -32 59 -39 68 -12 17 -5 49 11 49 6 0 21
-15 34 -32z m-453 -268 c7 -17 26 -49 41 -70 16 -22 29 -44 29 -49 0 -18 -30
-20 -47 -3 -31 31 -73 106 -73 129 0 35 35 30 50 -7z m-1012 -3 c14 -17 8 -24
-64 -80 -64 -50 -79 -55 -87 -34 -7 19 0 27 68 80 66 52 68 53 83 34z m-1982
-98 c14 -23 -18 -36 -158 -66 -23 -4 -28 -2 -28 15 0 21 27 35 95 51 56 13 83
13 91 0z m220 -41 c35 -16 49 -29 49 -43 0 -25 -13 -24 -95 10 -75 31 -85 39
-75 55 10 16 60 7 121 -22z m1532 -41 c14 -16 9 -24 -61 -80 -63 -51 -87 -58
-87 -27 0 11 24 39 62 70 69 55 71 56 86 37z m1520 3 c45 0 52 -3 52 -20 0
-25 -35 -34 -107 -27 -58 6 -91 26 -78 47 5 8 20 10 44 6 20 -3 60 -6 89 -6z
m-3532 -44 c3 -8 -8 -32 -24 -55 -16 -22 -35 -54 -42 -71 -8 -18 -20 -30 -31
-30 -36 0 -18 63 39 138 26 34 49 41 58 18z m694 -99 c23 -33 39 -68 38 -76
-7 -34 -34 -19 -73 40 -22 34 -44 68 -50 75 -7 10 -6 17 4 23 23 15 38 3 81
-62z m1070 -88 c-61 -51 -108 -81 -119 -74 -23 14 -8 36 56 85 61 46 68 49 82
35 15 -15 13 -19 -19 -46z m-1848 -104 c5 -16 19 -51 30 -78 17 -38 19 -50 9
-60 -10 -9 -17 -6 -37 16 -26 30 -59 130 -49 147 12 20 38 6 47 -25z m869 -22
c5 -15 11 -56 12 -92 2 -54 -1 -66 -15 -69 -20 -4 -25 11 -34 111 -6 67 -4 77
10 77 9 0 21 -12 27 -27z m769 -12 c0 -13 -22 -33 -65 -60 -71 -45 -95 -51
-95 -22 0 12 22 33 63 59 70 45 97 52 97 23z m-245 -151 c0 -18 -141 -94 -161
-86 -31 12 -12 37 54 70 71 35 107 41 107 16z m-1191 -62 c63 -40 78 -59 56
-73 -22 -14 -150 68 -150 97 0 28 23 22 94 -24z m673 -54 c7 -18 -22 -141 -38
-160 -19 -23 -41 -5 -35 30 l6 31 -75 -3 c-70 -4 -75 -3 -75 16 0 25 18 32 88
32 66 0 77 5 86 43 7 29 33 37 43 11z m248 -4 c0 -18 -117 -61 -155 -57 -48 4
-28 31 40 54 73 25 115 26 115 3z m-650 -38 c57 -12 80 -22 80 -32 0 -20 -51
-24 -120 -10 -57 12 -70 22 -61 45 6 18 1 18 101 -3z"/>
</g>
</svg>
